<svg width="230" height="139" viewBox="0 0 230 139" fill="none" xmlns="http://www.w3.org/2000/svg">
<path d="M85.0578 9.63789C107.803 -1.1136 134.599 -2.98874 158.598 4.61165C179.68 11.1247 198.442 24.7943 211.158 42.8244C227.024 64.8933 233.271 93.5306 228.211 120.226C220.766 120.226 213.321 120.193 205.876 120.26C207.729 112.171 208.45 103.827 207.918 95.5389C201.471 103.661 195.302 112.005 188.967 120.215C184.651 120.226 180.346 120.215 176.041 120.226C180.69 115.5 185.538 110.984 190.032 106.124C183.707 109.952 177.649 114.213 171.447 118.24C167.031 121.68 161.095 119.705 155.969 120.204C160.64 115.489 165.389 110.851 169.883 105.969C162.793 110.529 155.913 115.411 148.923 120.115C142.166 120.104 135.409 120.16 128.652 120.193C143.154 112.315 157.777 104.648 172.29 96.7816C176.196 94.3739 180.978 95.7275 185.294 95.3725C180.767 100.854 175.952 106.091 171.48 111.616C179.169 106.701 186.892 101.83 194.592 96.9259C198.42 94.0854 203.48 95.8607 207.884 95.3836C206.442 78.6627 199.84 62.3857 188.8 49.6925C175.941 34.6249 157.289 24.6279 137.584 22.3977C118.178 20.0898 97.984 25.2048 82.1064 36.622C76.1925 40.683 71.1884 45.8757 66.3952 51.1682C56.4648 50.2029 46.2236 51.8228 37.2363 56.2277C47.5773 36.0784 64.4313 19.18 85.0578 9.63789Z" fill="#FF1B28"/>
<path d="M37.2364 56.2276C46.2237 51.8227 56.4648 50.2028 66.3952 51.1681C106.672 54.8185 146.937 58.4134 187.225 61.9529C189.411 62.1748 191.585 62.4855 193.749 62.8405C151.32 61.7865 108.88 61.2428 66.4396 60.4217C63.0666 60.2886 59.8267 59.2012 56.4981 58.7574C46.1127 57.1486 35.4833 59.4453 26.0632 63.8946C29.5139 60.9765 33.131 58.1804 37.2364 56.2276Z" fill="#4D9D47"/>
<path d="M28.8703 65.3148C39.3111 61.6423 50.6618 62.8406 61.4355 64.0611C48.8976 74.4353 44.6259 91.0896 42.2625 106.49C41.4969 112.36 35.106 114.867 29.9355 115.411C22.4904 115.977 14.3574 115.722 7.74455 111.894C5.1926 107.1 7.93318 101.497 7.3784 96.3821C6.30214 101.53 5.11493 106.79 5.32574 112.071C5.52546 116.387 10.4962 117.186 13.8249 117.952C28.0714 121.28 42.7285 118.107 56.387 113.791C79.0773 107.322 101.801 100.942 124.513 94.5292C124.291 95.4501 123.87 97.292 123.659 98.2129C113.884 101.408 104.009 104.315 94.2226 107.478C74.8943 113.391 55.5993 119.771 35.5942 122.978C26.3294 123.854 16.6653 123.843 7.78893 120.703C4.62673 119.45 0.843177 117.097 0.854272 113.281C0.954132 106.701 3.80566 100.51 7.26745 95.0396L8.42137 98.8675C8.42137 93.5861 11.0621 88.8372 12.8817 83.9996C16.0329 76.3992 20.6042 68.1553 28.8703 65.3148Z" fill="#4D9D47"/>
<path d="M151.775 66.1138C157.267 72.3827 157.056 81.2036 154.604 88.7041C155.703 81.0482 155.203 73.1594 151.775 66.1138Z" fill="#4D9D47"/>
<path d="M124.713 67.2343C132.624 76.2771 132.003 89.6249 127.098 99.9548C148.69 92.9424 170.271 85.8746 191.874 78.9067C146.393 96.7482 100.858 114.49 55.2443 131.987C45.0697 135.982 34.2295 138.345 23.3005 138.711C17.3533 138.534 10.6738 137.901 6.20236 133.507C2.24128 129.713 1.06516 124.165 0 119.017C4.57133 123.555 11.0289 125.23 17.2201 126.107C26.2297 127.316 35.5831 127.594 44.3929 124.975C70.5449 117.996 96.2753 109.541 122.117 101.497C123.725 100.964 125.379 100.532 126.888 99.7329C130.571 89.1367 129.473 77.3089 124.713 67.2343Z" fill="#4D9D47"/>
<path d="M142.743 68.5547C144.463 68.5215 146.194 68.4882 147.936 68.4549C148.857 71.1844 149.079 74.0692 148.579 76.8985C148.024 74.7016 147.703 72.4381 146.993 70.2745C146.072 68.8765 144.141 69.0984 142.743 68.5547Z" fill="#4D9D47"/>
<path d="M156.701 68.3217C158.288 68.3439 159.874 68.3661 161.472 68.3772C161.772 70.4965 162.016 72.6268 161.983 74.7793C161.395 72.9596 160.884 71.1178 160.418 69.2649C159.175 68.9431 157.933 68.6324 156.701 68.3217Z" fill="#4D9D47"/>
<path d="M165.988 67.6892C167.364 67.9001 168.74 68.0887 170.127 68.2662C170.215 69.9083 170.293 71.5394 170.349 73.1815C169.738 70.7072 168.906 68.122 165.988 67.6892Z" fill="#4D9D47"/>
<path d="M75.7487 72.549C82.2285 68.9097 89.8289 68.1996 97.1297 68.5436C97.1186 74.1468 97.1519 79.7389 97.0853 85.3421C82.5392 86.8733 67.3495 89.6693 55.2 98.3571C59.0834 87.9051 65.7073 77.9303 75.7487 72.549Z" fill="#4D9D47"/>
<path d="M111.565 69.1094C114.783 69.0206 118 69.0096 121.218 69.2426C122.705 73.2258 123.681 77.6973 121.639 81.7028C120.885 78.1522 121.162 74.3354 119.476 71.0289C117.101 69.5865 114.194 69.6864 111.565 69.1094Z" fill="#4D9D47"/>
<path d="M129.284 69.2759C131.692 69.3647 134.1 69.4535 136.507 69.5866C137.417 72.8043 138.272 76.3548 136.485 79.4616C136.075 76.6766 136.408 73.6697 135.043 71.1067C133.445 69.7752 131.182 69.8751 129.284 69.2759Z" fill="#4D9D47"/>
<path d="M58.5729 134.317C100.88 117.641 143.165 100.898 185.583 84.4767C152.052 100.232 118.433 115.788 84.9246 131.566C82.2395 132.731 79.6321 134.528 76.5919 134.406C70.5782 134.406 64.5755 134.451 58.5729 134.317Z" fill="#4D9D47"/>
<path d="M53.9794 109.752C74.5282 94.6401 100.602 92.2656 124.779 87.0952C125.379 91.3891 120.752 90.8454 117.978 91.7331C96.3196 96.5041 74.9054 102.396 53.9794 109.752Z" fill="#4D9D47"/>
<path d="M102.555 134.317C108.669 131.3 114.372 127.061 120.852 125.008C156.313 124.886 191.774 124.997 227.246 124.964C226.403 128.148 225.46 131.311 224.472 134.451C183.83 134.273 143.187 134.539 102.555 134.317Z" fill="#4D9D47"/>
</svg>
